<?xml version="1.0" encoding="UTF-8" standalone="no"?> <!-- Created with Vectornator for iOS (http://vectornator.io/) --><!DOCTYPE svg PUBLIC "-//W3C//DTD SVG 1.1//EN" "http://www.w3.org/Graphics/SVG/1.1/DTD/svg11.dtd">
<svg style="fill-rule:evenodd;clip-rule:evenodd;stroke-linecap:round;stroke-linejoin:round;" xmlns:vectornator="http://vectornator.io" xmlns:xlink="http://www.w3.org/1999/xlink" xmlns="http://www.w3.org/2000/svg" xml:space="preserve" version="1.1" viewBox="0 0 1024 1024">
<metadata>
<vectornator:setting key="DisplayWhiteBackground" value="0"/>
<vectornator:setting key="RulersVisible" value="1"/>
<vectornator:setting key="GridSpacing" value="36"/>
<vectornator:setting key="Units" value="Pixels"/>
<vectornator:setting key="New" value="1"/>
<vectornator:setting key="DynamicGuides" value="0"/>
<vectornator:setting key="SnapToPoints" value="0"/>
<vectornator:setting key="SnapToGrid" value="0"/>
<vectornator:setting key="SnapToGuides" value="1"/>
<vectornator:setting key="SnapToEdges" value="0"/>
</metadata>
<defs/>
<g id="Layer 1" vectornator:layerName="Layer 1">
<path stroke="#000000" stroke-width="1" d="M482.577+230.542C482.63+231.206+482.859+231.88+482.734+232.535C480.016+246.84+478.001+261.329+474.063+275.347C471.443+284.675+467.131+293.456+463.141+302.286C457.727+314.268+452.908+326.644+445.867+337.749C432.867+358.253+414.987+375.297+398.024+392.667C374.181+417.084+345.349+434.279+312.747+443.508C301.951+446.564+287.473+450.387+276.096+449.398C269.711+448.843+263.215+447.454+256.841+446.9C253.906+446.645+250.791+447.954+247.868+447.605C245.072+447.271+232.642+443.656+230.685+445.947C229.528+447.302+233.406+458.654+233.933+461.741C235.974+473.694+236.799+492.502+243.207+503.141C249.707+513.934+274.908+506.104+283.397+503.994C296.426+500.756+310.722+500.772+324.036+497.79C338.113+494.637+350.683+488.591+364.048+483.61C366.763+482.598+369.056+480.118+371.71+478.995C382.414+474.467+393.433+471.894+403.824+466.44C408.671+463.896+412.084+459.966+416.079+456.448C428.699+445.336+443.739+439.302+455.834+426.24C483.584+396.267+502.643+361.132+516.94+323.133C529.779+289.011+534.152+251.256+537.543+215.186C538.249+207.673+538.571+200.414+538.81+193.019C538.875+190.992+539+188.958+539.336+186.959C539.46+186.224+540.888+185.108+540.176+184.887C535.721+183.498+530.872+185.618+526.219+185.984C520.238+186.454+514.256+186.924+508.275+187.395C503.353+187.782+487.656+184.557+484.192+187.282C483.361+187.936+486.146+193.597+486.891+196.098C487.803+199.157+489.161+205.563+488.907+208.979C487.581+226.817+486.699+242.991+479.866+259.844" fill="#000000" stroke-linecap="butt" opacity="1" stroke-linejoin="round"/>
<path stroke="#000000" stroke-width="1" d="M493.124+205.739C492.992+233.861+491.919+262.877+496.795+290.713C498.148+298.439+501.107+306.466+502.664+314.326C506.835+335.38+511.492+356.855+521.558+376.035C525.995+384.486+530.389+392.99+535.559+401.014C540.045+407.975+546.303+413.945+552.081+419.777C575.679+443.597+604.629+461.402+637.299+470.253C644.289+472.147+651.636+473.007+658.705+474.589C666.769+476.392+674.242+480.007+682.339+481.758C693.156+484.098+704.513+482.021+715.395+481.166C726.025+480.33+735.997+481.801+746.613+482.724C754.933+483.447+763.304+480.408+771.457+479.767C774.244+479.548+785.649+480.955+787.487+479.51C790.951+476.786+785.115+467.53+784.317+464.713C781.229+453.802+779.4+442.201+776.668+431.209C776.179+429.242+776.454+426.9+775.2+425.306C772.986+422.49+765.738+427.792+763.394+428.241C754.084+430.023+742.279+433.276+732.646+432.664C724.942+432.175+716.94+429.571+709.247+428.485C700.969+427.317+692.097+427.487+683.932+425.46C670.593+422.149+657.257+417.405+644.716+411.491C634.685+406.76+628.732+398.929+621.06+391.283C614.789+385.033+608.272+379.495+602.544+372.677C586.767+353.896+572.006+333.424+560.642+311.774C556.463+303.812+553.415+294.792+550.629+286.481C549.44+282.935+549.559+279.285+547.773+275.671C545.561+271.196+541.814+266.009+540.616+261.188C537.237+247.595+534.019+217.946+539.217+205.125" fill="#000000" stroke-linecap="butt" opacity="1" stroke-linejoin="round"/>
<path stroke="#000000" stroke-width="1" d="M484.383+285.795C484.728+302.584+486.887+317.519+486.391+334.764C485.784+355.884+483.222+378.343+482.73+399.853C481.945+434.192+484.178+468.624+481.851+502.893C479.712+534.408+474.37+565.638+471.789+597.12C470.37+614.424+470.669+631.828+469.86+649.171C468.103+686.821+467.232+724.664+465.188+762.291C464.806+769.312+464.06+776.31+463.62+783.328C463.452+786.01+463.211+788.693+462.785+791.347C462.618+792.387+461.245+793.502+461.847+794.367C462.19+794.859+470.984+793.5+472.824+793.14C477.829+792.164+482.724+790.633+487.759+789.832C495.489+788.604+512.08+787.567+519.732+788.174C524.815+788.577+529.771+789.967+534.791+790.864C538.137+791.462+541.471+792.136+544.83+792.658C548.985+793.303+552.898+795.916+552.787+790.494C552.656+784.127+550.89+777.888+550.396+771.539C548.043+741.301+544.671+710.974+543.524+680.661C542.746+660.107+543.528+639.231+542.248+618.674C541.044+599.356+539.373+580.058+538.054+560.748C535.883+528.944+537.01+496.574+537.078+464.748C537.125+442.738+536.648+420.75+536.719+398.742C536.832+363.726+536.278+328.764+535.557+293.743C535.47+289.527+537.509+275.859+533.146+273.789" fill="#000000" stroke-linecap="butt" opacity="1" stroke-linejoin="round"/>
</g>
</svg>
